<svg width="1200" height="630" viewBox="0 0 1200 630" fill="none" xmlns="http://www.w3.org/2000/svg">
  <rect width="1200" height="630" fill="#F8FBFF"/>
  <rect x="64" y="64" width="1072" height="502" rx="32" fill="url(#bg)"/>
  <circle cx="924" cy="208" r="120" fill="#DCEBFF"/>
  <circle cx="1005" cy="414" r="84" fill="#E8F9F1"/>
  <text x="126" y="164" fill="#2563EB" font-family="Arial, Helvetica, sans-serif" font-size="34" font-weight="700">LeadBrokers</text>
  <text x="126" y="248" fill="#0F172A" font-family="Arial, Helvetica, sans-serif" font-size="64" font-weight="700">Instant Personal Loan</text>
  <text x="126" y="320" fill="#0F172A" font-family="Arial, Helvetica, sans-serif" font-size="64" font-weight="700">Eligibility &amp; EMI Tools</text>
  <text x="126" y="388" fill="#475569" font-family="Arial, Helvetica, sans-serif" font-size="28">Check eligibility, compare offers, and plan repayments online in India.</text>
  <rect x="126" y="438" width="228" height="62" rx="31" fill="#2563EB"/>
  <text x="173" y="478" fill="white" font-family="Arial, Helvetica, sans-serif" font-size="26" font-weight="700">Fast Approval</text>
  <rect x="832" y="142" width="206" height="326" rx="34" fill="#0F172A"/>
  <rect x="848" y="164" width="174" height="282" rx="26" fill="white"/>
  <rect x="872" y="192" width="126" height="10" rx="5" fill="#E2E8F0"/>
  <rect x="872" y="226" width="110" height="10" rx="5" fill="#22C55E"/>
  <text x="935" y="270" text-anchor="middle" fill="#2563EB" font-family="Arial, Helvetica, sans-serif" font-size="24" font-weight="700">Approved</text>
  <rect x="884" y="294" width="102" height="86" rx="16" fill="#F8FAFC" stroke="#E2E8F0"/>
  <text x="935" y="328" text-anchor="middle" fill="#64748B" font-family="Arial, Helvetica, sans-serif" font-size="16">Loan Amount</text>
  <text x="935" y="360" text-anchor="middle" fill="#1D4ED8" font-family="Arial, Helvetica, sans-serif" font-size="28" font-weight="700">INR 2.5L</text>
  <defs>
    <linearGradient id="bg" x1="64" y1="64" x2="1136" y2="566" gradientUnits="userSpaceOnUse">
      <stop stop-color="#FFFFFF"/>
      <stop offset="1" stop-color="#EEF5FF"/>
    </linearGradient>
  </defs>
</svg>
